<svg xmlns="http://www.w3.org/2000/svg" viewBox="0 0 900 600">
  <rect width="100%" height="100%" fill="#f6fdfd"/>
  <rect x="70" y="70" width="760" height="460" rx="32" fill="#ffffff" stroke="#bae6fd" stroke-width="2"/>
  <rect x="110" y="120" width="680" height="90" rx="18" fill="#e0f2fe"/>
  <rect x="110" y="240" width="300" height="180" rx="20" fill="#f8fafc" stroke="#cbd5e1"/>
  <rect x="440" y="240" width="350" height="180" rx="20" fill="#f8fafc" stroke="#cbd5e1"/>
  <circle cx="700" cy="167" r="28" fill="#22d3ee"/>
  <rect x="140" y="270" width="120" height="14" rx="7" fill="#0f172a"/>
  <rect x="140" y="296" width="180" height="10" rx="5" fill="#64748b"/>
  <rect x="140" y="324" width="150" height="10" rx="5" fill="#64748b"/>
  <rect x="470" y="270" width="140" height="14" rx="7" fill="#0f172a"/>
  <rect x="470" y="296" width="210" height="10" rx="5" fill="#64748b"/>
  <rect x="470" y="324" width="180" height="10" rx="5" fill="#64748b"/>
  <rect x="110" y="450" width="680" height="50" rx="14" fill="#0f172a"/>
  <text x="110" y="188" fill="#0f172a" font-size="28" font-family="Segoe UI, Arial, sans-serif">Dentora Care</text>
</svg>