<svg xmlns="http://www.w3.org/2000/svg" viewBox="0 0 900 600">
  <rect width="100%" height="100%" fill="#07111f"/>
  <rect x="80" y="70" width="740" height="460" rx="36" fill="#0f172a" stroke="#334155" stroke-width="2"/>
  <rect x="140" y="130" width="300" height="340" rx="32" fill="#111827" stroke="#334155" stroke-width="2"/>
  <rect x="470" y="150" width="260" height="110" rx="18" fill="#1e293b"/>
  <rect x="470" y="285" width="260" height="150" rx="18" fill="#1e293b"/>
  <circle cx="300" cy="220" r="54" fill="#38bdf8"/>
  <rect x="210" y="296" width="180" height="18" rx="9" fill="#e2e8f0" opacity="0.9"/>
  <rect x="210" y="326" width="140" height="14" rx="7" fill="#94a3b8"/>
  <rect x="470" y="180" width="120" height="14" rx="7" fill="#38bdf8"/>
  <rect x="470" y="210" width="170" height="10" rx="5" fill="#64748b"/>
  <rect x="500" y="320" width="80" height="80" rx="18" fill="#38bdf8"/>
  <rect x="600" y="320" width="90" height="14" rx="7" fill="#e2e8f0"/>
  <rect x="600" y="344" width="70" height="10" rx="5" fill="#64748b"/>
  <text x="470" y="470" fill="#f8fafc" font-size="28" font-family="Segoe UI, Arial, sans-serif">Spark Pay</text>
</svg>